<svg width="16" height="16" viewBox="0 0 16 16" fill="none" xmlns="http://www.w3.org/2000/svg">
<g id="world">
<path id="Shape" fill-rule="evenodd" clip-rule="evenodd" d="M8.27357 0.158105L8.27355 0.158103L8.27355 0.158103C8.20787 0.149798 8.14208 0.141479 8.07533 0.141479C8.06148 0.141479 8.0478 0.143335 8.03415 0.145186C8.02233 0.146788 8.01054 0.148387 7.99869 0.148778C7.97732 0.148386 7.95606 0.146784 7.93478 0.14518H7.93478H7.93478H7.93478H7.93478H7.93477H7.93477H7.93477H7.93477H7.93476H7.93476H7.93476C7.91023 0.14333 7.88567 0.141479 7.86087 0.141479C3.52712 0.141479 0.0012207 3.66765 0.0012207 8.00113C0.0012207 12.3352 3.52712 15.8608 7.86087 15.8608C7.88579 15.8608 7.91047 15.859 7.93508 15.8572C7.9562 15.8557 7.97728 15.8541 7.99841 15.8538C8.01039 15.8542 8.02225 15.8557 8.0341 15.8572C8.0478 15.859 8.06148 15.8608 8.07533 15.8608C8.14558 15.8608 8.21477 15.8519 8.28388 15.8431C8.30175 15.8408 8.31962 15.8385 8.3375 15.8364C12.4492 15.5882 15.7205 12.1743 15.7205 8.00113C15.7205 3.82794 12.4492 0.414322 8.3375 0.165901C8.31619 0.163494 8.2949 0.160802 8.27359 0.158108L8.27357 0.158105ZM5.50803 1.54387C4.71196 2.46288 4.06522 3.78246 3.71013 5.34092C2.60585 5.22106 1.93947 5.08155 1.67083 5.01699C2.45122 3.40556 3.82704 2.16028 5.50803 1.54387ZM1.2989 5.93236C1.09259 6.58527 0.980309 7.28029 0.980309 8.00113C0.981471 8.84796 1.14005 9.6872 1.44796 10.4761C1.76262 10.4 2.46382 10.2543 3.60206 10.1308C3.48136 9.4546 3.41034 8.74302 3.41034 8.00113C3.41096 7.43445 3.45101 6.86849 3.5302 6.30737C2.20333 6.16001 1.48641 5.98288 1.2989 5.93236ZM1.87575 11.3833C2.23168 11.3075 2.86943 11.1927 3.81203 11.0942C4.18283 12.4663 4.78606 13.6258 5.50859 14.459C3.97136 13.8965 2.68375 12.8066 1.87519 11.3833H1.87575ZM4.70775 11.0103C5.2161 12.9791 6.45624 14.4396 7.29834 14.7921V10.9072C6.45624 10.9173 5.43869 10.9561 4.70775 11.0103ZM7.29834 9.92871C6.45624 9.93937 5.31013 9.9826 4.52866 10.0432C4.42115 9.39481 4.39055 8.70878 4.39055 8.00113C4.39055 7.45095 4.40122 6.91537 4.46775 6.39804C5.26129 6.46092 6.45624 6.50611 7.29834 6.51734V9.92843V9.92871ZM4.60248 5.42794C5.35533 5.48548 6.45624 5.52815 7.29834 5.53853V5.53825V1.21039C6.45624 1.58878 5.07266 3.23987 4.60248 5.42794ZM14.0256 4.96309C13.8721 5.01025 13.2501 5.18373 12.0197 5.32941C11.7421 3.85292 11.2411 2.59481 10.5876 1.68646C12.0857 2.33573 13.304 3.50457 14.0256 4.96281V4.96309ZM11.1122 5.42653C10.651 3.21123 9.26326 1.54527 8.42115 1.1958V5.53881C9.26326 5.52843 10.3715 5.48548 11.1122 5.42653ZM8.42115 6.51734C9.26326 6.50639 10.4436 6.46008 11.2273 6.39495C11.2919 6.91313 11.3082 7.44955 11.3082 8.00113C11.3082 8.70962 11.2829 9.39678 11.1785 10.046C10.4068 9.98373 9.26326 9.93881 8.42115 9.92871V6.51734ZM8.42115 10.9072V14.8067V14.807C9.26326 14.4808 10.5101 13.0077 11.0098 11.0125C10.2884 10.9569 9.26326 10.9173 8.42115 10.9072ZM10.5876 14.3164C11.1765 13.4978 11.6456 12.3992 11.935 11.1088C12.9028 11.2202 13.5125 11.3499 13.8199 11.4274C13.0798 12.7118 11.9467 13.7245 10.5876 14.3164ZM12.168 6.29671C12.3157 7.57569 12.2958 8.86847 12.109 10.1423L12.1093 10.142C13.304 10.2824 13.9835 10.4514 14.2539 10.5303C14.5654 9.74653 14.7423 8.8946 14.7423 8.00113C14.7419 7.11797 14.5703 6.24327 14.237 5.42541L14.395 5.87173C14.3507 5.88744 13.6809 6.11509 12.168 6.29671Z" fill="white"/>
</g>
</svg>
